{"title":"Runaway Bride (1999) Julia Roberts (QualityDVDrip + Multisubs)","uid":4395496,"size":733618520,"categoryP":"video","categoryS":"movies","magnet":"?xt=urn:btih:e0f60bc5813b45df5ac648ef9466c16accf49f95&amp;dn=Runaway+Bride+%281999%29+Julia+Roberts+%28QualityDVDrip+%2B+Multisubs%29&amp;tr=udp%3A%2F%2Ftracker.openbittorrent.com%3A80&amp;tr=udp%3A%2F%2Fopen.demonii.com%3A1337&amp;tr=udp%3A%2F%2Ftracker.coppersurfer.tk%3A6969&amp;tr=udp%3A%2F%2Fexodus.desync.com%3A6969","seeders":16,"leechers":0,"uploader":"Kuthumi","files":-1,"time":1221410322,"description":" &lt;a href=&quot;http://www.imdb.com/title/tt0163187/&quot; rel=&quot;nofollow&quot; target=&quot;_NEW&quot;&gt;http://www.imdb.com/title/tt0163187/&lt;/a&gt;\n\nOptional subtitles (srt format) in \nDanish, Dutch, English, Finnish, French, German, Norwegian, Spanish, Swedish. \n\nA reporter (Richard Gere) is assigned to write a story about a woman who has left a string of fiances at the altar.\n\nDVDrip, XviD 2-pass Widescreen 704x288, good stereo AC3.\n\nBurn tested, runs well in both my DivX players.\n\nFormat/Info                      : Audio Video Interleave\nFile size                        : 699 MiB\nDuration                         : 1h 51mn\nOveral bit rate                  : 876 Kbps\n\nVideo\nFormat                           : MPEG-4 Visual\nFormat profile                   : Streaming Video@L1\nFormat settings, BVOP            : Yes\nFormat settings, QPel            : No\nFormat settings, GMC             : No warppoints\nFormat settings, Matrix          : Default\nMuxing mode                      : Packet Bitstream\nCodec ID                         : XVID\nCodec ID/Hint                    : XviD\nDuration                         : 1h 51mn\nBit rate                         : 738 Kbps\nWidth                            : 704 pixels\nHeight                           : 288 pixels\nDisplay aspect ratio             : 2.444\nFrame rate                       : 25.000 fps\nResolution                       : 8 bits\nColorimetry                      : 4:2:0\nScan type                        : Progressive\nBits/(Pixel*Frame)               : 0.146\nStream size                      : 589 MiB\nWriting library                  : XviD 1.2.0.dev47 (UTC 2006-11-01)\n\nAudio\nFormat                           : MPEG Audio\nFormat version                   : Version 1\nFormat profile                   : Layer 3\nCodec ID                         : 55\nCodec ID/Hint                    : MP3\nDuration                         : 1h 51mn\nBit rate mode                    : Constant\nBit rate                         : 128 Kbps\nMinimum bit rate                 : 128 Kbps\nChannel(s)                       : 2 channels\nSampling rate                    : 48.0 KHz\nResolution                       : 16 bits\nStream size                      : 102 MiB\nWriting library                  : LAME3.97 \nEncoding settings                : CBR","torrent":{"xt":"urn:btih:e0f60bc5813b45df5ac648ef9466c16accf49f95","amp;dn":"Runaway+Bride+%281999%29+Julia+Roberts+%28QualityDVDrip+%2B+Multisubs%29","amp;tr":["udp%3A%2F%2Ftracker.openbittorrent.com%3A80","udp%3A%2F%2Fopen.demonii.com%3A1337","udp%3A%2F%2Ftracker.coppersurfer.tk%3A6969","udp%3A%2F%2Fexodus.desync.com%3A6969"],"infoHash":"e0f60bc5813b45df5ac648ef9466c16accf49f95","infoHashBuffer":{"type":"Buffer","data":[224,246,11,197,129,59,69,223,90,198,72,239,148,102,193,106,204,244,159,149]},"announce":[],"urlList":[]}}